<?xml version="1.0" standalone="no"?>
<svg version="1.2" xmlns="http://www.w3.org/2000/svg" xmlns:xlink="http://www.w3.org/1999/xlink" overflow="visible" preserveAspectRatio="none" viewBox="0 0 36 34" width="36" height="34"><g transform="translate(0, 0)"><defs><path id="path-160732745144510" d="M18.000000000000004 0 C27.934470440892 0 36.00000000000001 7.617444583602002 36.00000000000001 17 C36.00000000000001 26.382555416397985 27.934470440892 34 18.000000000000004 34 C8.065529559108002 34 0 26.382555416397985 0 17 C0 7.617444583602002 8.065529559108002 0 18.000000000000004 0 Z"/><filter height="113.88888888888889%" id="filter-16073274516731175" width="111.76470588235294%" x="-5.88235294117647%" y="-2.7777777777777777%"><feFlood flood-opacity="0" result="backgroundFix"/><feColorMatrix in="SourceAlpha" result="hardAlpha" type="matrix" values="0 0 0 0 0 0 0 0 0 0 0 0 0 0 0 0 0 0 127 0"/><feOffset dx="0" dy="1"/><feGaussianBlur stdDeviation="1.1666666666666665"/><feColorMatrix in="" result="" type="matrix" values="0 0 0 0 0  0 0 0 0 0  0 0 0 0 0  0 0 0 0.2 0"/><feBlend in2="backgroundFix" mode="normal" result="shadowOuter_1"/></filter></defs><g transform="translate(0, 0)"><use xmlns:xlink="http://www.w3.org/1999/xlink" xlink:href="#path-160732745144510" filter="url(#filter-16073274516731175)"/><path d="M18.000000000000004 0 C27.934470440892 0 36.00000000000001 7.617444583602002 36.00000000000001 17 C36.00000000000001 26.382555416397985 27.934470440892 34 18.000000000000004 34 C8.065529559108002 34 0 26.382555416397985 0 17 C0 7.617444583602002 8.065529559108002 0 18.000000000000004 0 Z" style="stroke: rgb(140, 140, 140); stroke-width: 0; stroke-linecap: butt; stroke-linejoin: miter; fill: rgb(255, 255, 255);"/></g></g></svg>