<?xml version="1.0" standalone="no"?>
<svg version="1.2" xmlns="http://www.w3.org/2000/svg" xmlns:xlink="http://www.w3.org/1999/xlink" overflow="visible" preserveAspectRatio="none" viewBox="0 0 232 50" width="232" height="50"><g transform="translate(0, 0)"><defs><path id="path-16073274514376" d="M0 24.99999999999994 C0 11.192881254999973 11.192881254999973 0 24.99999999999994 0 C24.99999999999994 0 207.00000000000006 0 207.00000000000006 0 C220.80711874500003 0 232 11.192881254999973 232 24.99999999999994 C232 24.99999999999994 232 24.99999999999994 232 24.99999999999994 C232 38.807118744999904 220.80711874500003 49.99999999999988 207.00000000000006 49.99999999999988 C207.00000000000006 49.99999999999988 24.99999999999994 49.99999999999988 24.99999999999994 49.99999999999988 C11.192881254999973 49.99999999999988 0 38.807118744999904 0 24.99999999999994 C0 24.99999999999994 0 24.99999999999994 0 24.99999999999994 Z"/></defs><g transform="translate(0, 0)"><path d="M0 24.99999999999994 C0 11.192881254999973 11.192881254999973 0 24.99999999999994 0 C24.99999999999994 0 207.00000000000006 0 207.00000000000006 0 C220.80711874500003 0 232 11.192881254999973 232 24.99999999999994 C232 24.99999999999994 232 24.99999999999994 232 24.99999999999994 C232 38.807118744999904 220.80711874500003 49.99999999999988 207.00000000000006 49.99999999999988 C207.00000000000006 49.99999999999988 24.99999999999994 49.99999999999988 24.99999999999994 49.99999999999988 C11.192881254999973 49.99999999999988 0 38.807118744999904 0 24.99999999999994 C0 24.99999999999994 0 24.99999999999994 0 24.99999999999994 Z" style="stroke: rgb(140, 140, 140); stroke-width: 0; stroke-linecap: butt; stroke-linejoin: miter; fill: rgb(58, 181, 74);"/></g></g></svg>