<?xml version="1.0" standalone="no"?>
<svg version="1.2" xmlns="http://www.w3.org/2000/svg" xmlns:xlink="http://www.w3.org/1999/xlink" overflow="visible" preserveAspectRatio="none" viewBox="0 0 169.00000000000003 41" width="169.00000000000003" height="41"><g transform="translate(0, 0)"><defs><path id="path-160732745144913" d="M0 15.000000000000002 C0 6.7157287530000005 6.7157287530000005 0 15 0 C15 0 154.00000000000023 0 154.00000000000023 0 C162.28427124700022 0 169.00000000000023 6.715728753000001 169.00000000000023 15.000000000000002 C169.00000000000023 15.000000000000002 169.00000000000023 25.999999999999915 169.00000000000023 25.999999999999915 C169.00000000000023 34.284271246999914 162.28427124700022 40.999999999999915 154.00000000000023 40.999999999999915 C154.00000000000023 40.999999999999915 15 40.999999999999915 15 40.999999999999915 C6.7157287530000005 40.999999999999915 0 34.284271246999914 0 25.999999999999915 C0 25.999999999999915 0 15.000000000000002 0 15.000000000000002 Z"/><filter height="112.19512195121952%" id="filter-1607327451649997" width="105.91715976331362%" x="-0%" y="-2.4390243902439024%"><feFlood flood-opacity="0" result="backgroundFix"/><feColorMatrix in="SourceAlpha" result="hardAlpha" type="matrix" values="0 0 0 0 0 0 0 0 0 0 0 0 0 0 0 0 0 0 127 0"/><feOffset dx="4" dy="1"/><feGaussianBlur stdDeviation="1.1666666666666665"/><feColorMatrix in="" result="" type="matrix" values="0 0 0 0 0  0 0 0 0 0  0 0 0 0 0  0 0 0 0.2 0"/><feBlend in2="backgroundFix" mode="normal" result="shadowOuter_1"/></filter></defs><g transform="translate(0, 0)"><use xmlns:xlink="http://www.w3.org/1999/xlink" xlink:href="#path-160732745144913" filter="url(#filter-1607327451649997)"/><path d="M0 15.000000000000002 C0 6.7157287530000005 6.7157287530000005 0 15 0 C15 0 154.00000000000023 0 154.00000000000023 0 C162.28427124700022 0 169.00000000000023 6.715728753000001 169.00000000000023 15.000000000000002 C169.00000000000023 15.000000000000002 169.00000000000023 25.999999999999915 169.00000000000023 25.999999999999915 C169.00000000000023 34.284271246999914 162.28427124700022 40.999999999999915 154.00000000000023 40.999999999999915 C154.00000000000023 40.999999999999915 15 40.999999999999915 15 40.999999999999915 C6.7157287530000005 40.999999999999915 0 34.284271246999914 0 25.999999999999915 C0 25.999999999999915 0 15.000000000000002 0 15.000000000000002 Z" style="stroke: rgb(140, 140, 140); stroke-width: 0; stroke-linecap: butt; stroke-linejoin: miter; fill: rgb(58, 181, 74);"/></g></g></svg>