<?xml version="1.0" standalone="no"?>
<svg version="1.2" xmlns="http://www.w3.org/2000/svg" xmlns:xlink="http://www.w3.org/1999/xlink" overflow="visible" preserveAspectRatio="none" viewBox="0 0 990 198" width="990" height="198"><g transform="translate(0, 0)"><defs><path id="path-1607327451519120" d="M0 10.000000000000002 C0 4.477152502000001 4.477152502000001 0 10.000000000000002 0 C10.000000000000002 0 979.9999999999995 0 979.9999999999995 0 C985.5228474979996 0 989.9999999999995 4.477152502000001 989.9999999999995 10.000000000000002 C989.9999999999995 10.000000000000002 989.9999999999995 188.0000000000002 989.9999999999995 188.0000000000002 C989.9999999999995 193.5228474980002 985.5228474979996 198.0000000000002 979.9999999999995 198.0000000000002 C979.9999999999995 198.0000000000002 10.000000000000002 198.0000000000002 10.000000000000002 198.0000000000002 C4.477152502000001 198.0000000000002 0 193.5228474980002 0 188.0000000000002 C0 188.0000000000002 0 10.000000000000002 0 10.000000000000002 Z"/><filter height="102.52525252525253%" id="filter-1607327451634730" width="100.4040404040404%" x="-0.20202020202020202%" y="-0.5050505050505051%"><feFlood flood-opacity="0" result="backgroundFix"/><feColorMatrix in="SourceAlpha" result="hardAlpha" type="matrix" values="0 0 0 0 0 0 0 0 0 0 0 0 0 0 0 0 0 0 127 0"/><feOffset dx="0" dy="1"/><feGaussianBlur stdDeviation="1.1666666666666665"/><feColorMatrix in="" result="" type="matrix" values="0 0 0 0 0  0 0 0 0 0  0 0 0 0 0  0 0 0 0.2 0"/><feBlend in2="backgroundFix" mode="normal" result="shadowOuter_1"/></filter></defs><g transform="translate(0, 0)"><use xmlns:xlink="http://www.w3.org/1999/xlink" xlink:href="#path-1607327451519120" filter="url(#filter-1607327451634730)"/><path d="M0 10.000000000000002 C0 4.477152502000001 4.477152502000001 0 10.000000000000002 0 C10.000000000000002 0 979.9999999999995 0 979.9999999999995 0 C985.5228474979996 0 989.9999999999995 4.477152502000001 989.9999999999995 10.000000000000002 C989.9999999999995 10.000000000000002 989.9999999999995 188.0000000000002 989.9999999999995 188.0000000000002 C989.9999999999995 193.5228474980002 985.5228474979996 198.0000000000002 979.9999999999995 198.0000000000002 C979.9999999999995 198.0000000000002 10.000000000000002 198.0000000000002 10.000000000000002 198.0000000000002 C4.477152502000001 198.0000000000002 0 193.5228474980002 0 188.0000000000002 C0 188.0000000000002 0 10.000000000000002 0 10.000000000000002 Z" style="stroke: rgb(140, 140, 140); stroke-width: 0; stroke-linecap: butt; stroke-linejoin: miter; fill: rgb(255, 255, 255);"/></g></g></svg>