<?xml version="1.0" standalone="no"?>
<svg version="1.2" xmlns="http://www.w3.org/2000/svg" xmlns:xlink="http://www.w3.org/1999/xlink" overflow="visible" preserveAspectRatio="none" viewBox="0 0 521.0000000000001 56" width="521.0000000000001" height="56"><g transform="translate(0, 0)"><defs><path id="path-160732745146631" d="M0 25.000000000000004 C0 11.192881255000001 11.192881255000001 0 25 0 C25 0 496.00000000000057 0 496.00000000000057 0 C509.8071187450006 0 521.0000000000006 11.192881255000001 521.0000000000006 25.000000000000004 C521.0000000000006 25.000000000000004 521.0000000000006 30.999999999999897 521.0000000000006 30.999999999999897 C521.0000000000006 44.8071187449999 509.8071187450006 55.9999999999999 496.00000000000057 55.9999999999999 C496.00000000000057 55.9999999999999 25 55.9999999999999 25 55.9999999999999 C11.192881255000001 55.9999999999999 0 44.8071187449999 0 30.999999999999897 C0 30.999999999999897 0 25.000000000000004 0 25.000000000000004 Z"/><filter height="108.92857142857142%" id="filter-16073274516841176" width="101.91938579654511%" x="-0%" y="-1.7857142857142856%"><feFlood flood-opacity="0" result="backgroundFix"/><feColorMatrix in="SourceAlpha" result="hardAlpha" type="matrix" values="0 0 0 0 0 0 0 0 0 0 0 0 0 0 0 0 0 0 127 0"/><feOffset dx="4" dy="1"/><feGaussianBlur stdDeviation="1.1666666666666665"/><feColorMatrix in="" result="" type="matrix" values="0 0 0 0 0  0 0 0 0 0  0 0 0 0 0  0 0 0 0.2 0"/><feBlend in2="backgroundFix" mode="normal" result="shadowOuter_1"/></filter></defs><g transform="translate(0, 0)"><use xmlns:xlink="http://www.w3.org/1999/xlink" xlink:href="#path-160732745146631" filter="url(#filter-16073274516841176)"/><path d="M0 25.000000000000004 C0 11.192881255000001 11.192881255000001 0 25 0 C25 0 496.00000000000057 0 496.00000000000057 0 C509.8071187450006 0 521.0000000000006 11.192881255000001 521.0000000000006 25.000000000000004 C521.0000000000006 25.000000000000004 521.0000000000006 30.999999999999897 521.0000000000006 30.999999999999897 C521.0000000000006 44.8071187449999 509.8071187450006 55.9999999999999 496.00000000000057 55.9999999999999 C496.00000000000057 55.9999999999999 25 55.9999999999999 25 55.9999999999999 C11.192881255000001 55.9999999999999 0 44.8071187449999 0 30.999999999999897 C0 30.999999999999897 0 25.000000000000004 0 25.000000000000004 Z" style="stroke: rgb(140, 140, 140); stroke-width: 0; stroke-linecap: butt; stroke-linejoin: miter; fill: rgb(242, 242, 242);"/></g></g></svg>