<?xml version="1.0" standalone="no"?>
<svg version="1.2" xmlns="http://www.w3.org/2000/svg" xmlns:xlink="http://www.w3.org/1999/xlink" overflow="visible" preserveAspectRatio="none" viewBox="0 0 250 47" width="250" height="47"><g transform="translate(0, 0)"><defs><path id="path-160732745147137" d="M0 15.000000000000002 C0 6.7157287530000005 6.715728753000001 0 15.000000000000002 0 C15.000000000000002 0 235 0 235 0 C243.284271247 0 250 6.715728753000001 250 15.000000000000002 C250 15.000000000000002 250 31.999999999999915 250 31.999999999999915 C250 40.284271246999914 243.284271247 46.999999999999915 235 46.999999999999915 C235 46.999999999999915 15.000000000000002 46.999999999999915 15.000000000000002 46.999999999999915 C6.7157287530000005 46.999999999999915 0 40.284271246999914 0 31.999999999999915 C0 31.999999999999915 0 15.000000000000002 0 15.000000000000002 Z"/><filter height="110.63829787234043%" id="filter-16073274516711086" width="104%" x="-0%" y="-2.127659574468085%"><feFlood flood-opacity="0" result="backgroundFix"/><feColorMatrix in="SourceAlpha" result="hardAlpha" type="matrix" values="0 0 0 0 0 0 0 0 0 0 0 0 0 0 0 0 0 0 127 0"/><feOffset dx="4" dy="1"/><feGaussianBlur stdDeviation="1.1666666666666665"/><feColorMatrix in="" result="" type="matrix" values="0 0 0 0 0  0 0 0 0 0  0 0 0 0 0  0 0 0 0.2 0"/><feBlend in2="backgroundFix" mode="normal" result="shadowOuter_1"/></filter></defs><g transform="translate(0, 0)"><use xmlns:xlink="http://www.w3.org/1999/xlink" xlink:href="#path-160732745147137" filter="url(#filter-16073274516711086)"/><path d="M0 15.000000000000002 C0 6.7157287530000005 6.715728753000001 0 15.000000000000002 0 C15.000000000000002 0 235 0 235 0 C243.284271247 0 250 6.715728753000001 250 15.000000000000002 C250 15.000000000000002 250 31.999999999999915 250 31.999999999999915 C250 40.284271246999914 243.284271247 46.999999999999915 235 46.999999999999915 C235 46.999999999999915 15.000000000000002 46.999999999999915 15.000000000000002 46.999999999999915 C6.7157287530000005 46.999999999999915 0 40.284271246999914 0 31.999999999999915 C0 31.999999999999915 0 15.000000000000002 0 15.000000000000002 Z" style="stroke: rgb(140, 140, 140); stroke-width: 0; stroke-linecap: butt; stroke-linejoin: miter; fill: rgb(58, 181, 74);"/></g></g></svg>