<svg version="1.2" xmlns="http://www.w3.org/2000/svg" xmlns:xlink="http://www.w3.org/1999/xlink" overflow="visible" preserveAspectRatio="none" viewBox="0 0 24 24" width="68" height="67"><g><path xmlns:default="http://www.w3.org/2000/svg" id="lightbulb-o" d="M14.33,8.66c0-0.35-0.14-0.69-0.39-0.94C13.68,7.46,13.36,7.27,13,7.16C12.68,7.06,12.34,7,12,6.99  c-0.19,0-0.34,0.15-0.34,0.34S11.81,7.66,12,7.66c0.38,0.01,0.76,0.09,1.1,0.26c0.32,0.1,0.55,0.4,0.56,0.74  C13.66,8.85,13.81,9,14,9S14.33,8.85,14.33,8.66C14.33,8.66,14.33,8.66,14.33,8.66z M15.33,10.53L15,10.88l-0.32,0.34  c-0.8,0.86-1.31,1.94-1.47,3.1h-2.4c-0.16-1.16-0.67-2.24-1.47-3.1L9,10.88l-0.32-0.34C8.23,10.02,7.99,9.35,8,8.66  c0-0.49,0.12-0.97,0.36-1.4C8.59,6.85,8.91,6.49,9.3,6.21c0.39-0.28,0.82-0.5,1.28-0.65c0.92-0.31,1.92-0.31,2.84,0  c0.46,0.15,0.89,0.37,1.28,0.65c0.39,0.28,0.71,0.64,0.94,1.06C15.88,7.7,16,8.18,16,8.66c0,0.69-0.25,1.36-0.71,1.87H15.33z   M17.33,8.66c0.01-0.67-0.15-1.33-0.46-1.92c-0.29-0.58-0.71-1.08-1.22-1.48c-0.52-0.4-1.09-0.72-1.71-0.93  c-1.25-0.45-2.63-0.45-3.88,0C9.44,4.55,8.87,4.86,8.35,5.26c-0.51,0.4-0.93,0.9-1.22,1.48C6.82,7.34,6.66,8,6.67,8.66  C6.65,9.7,7.04,10.7,7.74,11.45c0.31,0.34,0.57,0.64,0.78,0.91c0.24,0.31,0.44,0.65,0.62,1c0.19,0.35,0.31,0.73,0.35,1.12  c-0.31,0.17-0.5,0.5-0.49,0.85c0,0.25,0.09,0.49,0.26,0.67c-0.37,0.41-0.33,1.04,0.08,1.41c0.04,0.04,0.08,0.07,0.13,0.1  C9.38,17.66,9.33,17.83,9.33,18c-0.02,0.29,0.11,0.56,0.33,0.74c0.23,0.18,0.52,0.27,0.81,0.26c0.13,0.3,0.35,0.55,0.62,0.73  c0.55,0.36,1.26,0.36,1.81,0c0.28-0.18,0.5-0.44,0.63-0.74c0.29,0.01,0.58-0.08,0.81-0.26c0.22-0.18,0.35-0.45,0.33-0.74  c0-0.17-0.05-0.34-0.14-0.49c0.47-0.3,0.6-0.91,0.31-1.38c-0.03-0.05-0.06-0.09-0.1-0.13c0.17-0.18,0.26-0.42,0.26-0.67  c0.01-0.35-0.18-0.68-0.49-0.85c0.04-0.39,0.16-0.77,0.35-1.12c0.18-0.35,0.38-0.69,0.62-1c0.21-0.27,0.47-0.57,0.78-0.91  c0.7-0.76,1.09-1.76,1.07-2.79l0,0V8.66z" style="fill: rgb(46, 191, 99);" vector-effect="non-scaling-stroke"/></g></svg>