<svg version="1.2" xmlns="http://www.w3.org/2000/svg" xmlns:xlink="http://www.w3.org/1999/xlink" overflow="visible" preserveAspectRatio="none" viewBox="0 0 24 24" width="82" height="72"><g><path xmlns:default="http://www.w3.org/2000/svg" id="mobile" d="M12.59,17.93c-0.32,0.33-0.85,0.33-1.17,0.01c-0.33-0.32-0.33-0.85-0.01-1.17c0.32-0.33,0.85-0.33,1.17-0.01  c0.16,0.15,0.24,0.36,0.25,0.58C12.84,17.56,12.75,17.77,12.59,17.93z M14.9,15.93c-0.06,0.06-0.14,0.1-0.23,0.1H9.33  C9.14,16.02,8.99,15.86,9,15.68c0,0,0-0.01,0-0.01V8.35c0-0.18,0.15-0.33,0.33-0.34h5.33c0.18,0.01,0.32,0.15,0.33,0.33v7.33  c0,0.09-0.03,0.18-0.09,0.24V15.93z M12.83,7.01h-1.66c-0.09-0.02-0.15-0.11-0.12-0.21c0.02-0.06,0.06-0.11,0.12-0.12h1.67  c0.09,0.03,0.14,0.12,0.12,0.21C12.94,6.95,12.89,6.99,12.83,7.01z M15.6,5.74c-0.24-0.26-0.58-0.4-0.94-0.4H9.33  C8.6,5.35,8.01,5.94,8,6.68v10.66c0.01,0.73,0.6,1.32,1.33,1.33h5.33c0.73-0.01,1.33-0.6,1.34-1.33V6.68  C16,6.32,15.86,5.98,15.6,5.74z" style="fill: rgb(252, 50, 195);" vector-effect="non-scaling-stroke"/></g></svg>